<?xml version="1.0" encoding="UTF-8" standalone="no"?>
<!DOCTYPE svg PUBLIC "-//W3C//DTD SVG 1.1//EN" "http://www.w3.org/Graphics/SVG/1.1/DTD/svg11.dtd">
<svg width="100%" height="100%" viewBox="0 0 700 614" version="1.1" xmlns="http://www.w3.org/2000/svg" xmlns:xlink="http://www.w3.org/1999/xlink" xml:space="preserve" xmlns:serif="http://www.serif.com/" style="fill-rule:evenodd;clip-rule:evenodd;stroke-linejoin:round;stroke-miterlimit:2;">
    <g>
        <path d="M417.2,145.6C391.208,119.674 356.2,104.803 319.497,104.096C282.79,103.389 247.235,116.897 220.263,141.799C193.29,166.705 176.993,201.072 174.775,237.713C172.556,274.358 184.591,310.44 208.365,338.413C232.135,366.386 265.803,384.089 302.326,387.811C338.846,391.534 375.392,380.995 404.326,358.393L497.846,451.354C502.198,454.616 507.858,455.573 513.037,453.917C518.217,452.264 522.275,448.206 523.928,443.026C525.584,437.846 524.627,432.186 521.365,427.835L428.404,334.315C450.099,306.999 460.951,272.635 458.884,237.815C456.818,202.991 441.978,170.155 417.204,145.596L417.2,145.6ZM393.122,323.12C372.731,343.604 345.02,355.12 316.122,355.12C287.22,355.12 259.509,343.604 239.122,323.12C218.52,302.929 207.001,275.241 207.2,246.397C207.2,207.385 228.012,171.335 261.802,151.827C295.587,132.323 337.216,132.323 371.002,151.827C404.787,171.335 425.604,207.386 425.604,246.397C425.588,275.311 413.874,302.987 393.124,323.12L393.122,323.12Z" style="fill-rule:nonzero;"/>
        <g id="x">
        </g>
        <g id="b">
        </g>
        <g id="a">
        </g>
        <g id="f">
        </g>
        <g id="c">
        </g>
        <g id="a1" serif:id="a">
        </g>
        <g id="e">
        </g>
        <g id="l">
        </g>
        <g id="k">
        </g>
        <g id="j">
        </g>
        <g id="i">
        </g>
        <g id="e1" serif:id="e">
        </g>
        <g id="b1" serif:id="b">
        </g>
        <g id="a2" serif:id="a">
        </g>
        <g id="f1" serif:id="f">
        </g>
        <g id="h">
        </g>
        <g id="w">
        </g>
        <g id="v">
        </g>
        <g id="u">
        </g>
        <g id="h1" serif:id="h">
        </g>
        <g id="c1" serif:id="c">
        </g>
        <g id="b2" serif:id="b">
        </g>
        <g id="t">
        </g>
        <g id="g">
        </g>
        <g id="s">
        </g>
        <g id="b3" serif:id="b">
        </g>
        <g id="d">
        </g>
        <g id="g1" serif:id="g">
        </g>
        <g id="c2" serif:id="c">
        </g>
        <g id="r">
        </g>
        <g id="a3" serif:id="a">
        </g>
        <g id="q">
        </g>
        <g id="d1" serif:id="d">
        </g>
        <g id="p">
        </g>
        <g id="i1" serif:id="i">
        </g>
        <g id="o">
        </g>
        <g id="b4" serif:id="b">
        </g>
        <g id="d2" serif:id="d">
        </g>
        <g id="n">
        </g>
        <g id="a4" serif:id="a">
        </g>
        <g id="m">
        </g>
        <g id="c3" serif:id="c">
        </g>
    </g>
</svg>
